<?xml version="1.0" encoding="utf-8"?>
<!-- Generator: Adobe Illustrator 19.2.0, SVG Export Plug-In . SVG Version: 6.00 Build 0)  -->
<!DOCTYPE svg PUBLIC "-//W3C//DTD SVG 1.1//EN" "http://www.w3.org/Graphics/SVG/1.1/DTD/svg11.dtd">
<svg version="1.1" id="Layer_2" xmlns="http://www.w3.org/2000/svg" xmlns:xlink="http://www.w3.org/1999/xlink" x="0px" y="0px"
	 viewBox="0 0 453 366" style="enable-background:new 0 0 453 366;" xml:space="preserve">
<style type="text/css">
	.st0{fill:#FFFFFF;}
</style>
<g>
	<g>
		<path class="st0" d="M81.2,47.1C74.2,47.2,67,47,60,47.6c-5.1,0.4-8.6,2.7-12,6.3c-8.7,9.2-14.1,19.5-18,31.5
			c-4.1,12.4-6.7,24.1-3.9,37.1c2.8,12.8,8.7,24.8,11.4,37.6c0.3,1.6,2.7,0.9,2.4-0.7c-2.3-11-6.8-21.2-9.9-31.9
			c-3.6-12.7-2.9-23.9,0.9-36.4c3.5-11.6,7.7-22.9,15.9-32.1c1.6-1.9,3.3-3.8,5.1-5.5c3.3-2.9,6.7-3.5,10.9-3.7
			c6.1-0.2,12.3-0.2,18.4-0.4C82.8,49.5,82.8,47,81.2,47.1L81.2,47.1z"/>
	</g>
</g>
<g>
	<g>
		<path class="st0" d="M36.8,159.7c3.9,12.4,7.5,25.2,12.6,37.1c5,11.7,12.1,22.4,17.6,33.8c0.7,1.5,2.8,0.2,2.2-1.3
			c-5.4-11.4-12.5-21.9-17.5-33.5c-5.1-11.8-8.6-24.5-12.5-36.8C38.7,157.5,36.3,158.1,36.8,159.7L36.8,159.7z"/>
	</g>
</g>
<g>
	<g>
		<path class="st0" d="M66.2,230.2c5.5,21.4,9.5,43.7,19.3,63.6c0.7,1.4,2.9,0.2,2.2-1.3c-9.7-19.6-13.7-41.9-19.1-63
			C68.2,228,65.8,228.7,66.2,230.2L66.2,230.2z"/>
	</g>
</g>
<g>
	<g>
		<path class="st0" d="M86.1,293.7c4.4,6,11,9,17.8,11.4c9.1,3.3,18.7,5.2,28.3,5.7c21.5,1.3,43.3,0.2,64.8,0.2c1.6,0,1.6-2.5,0-2.5
			c-19,0-37.9,0.3-56.9,0.1c-9.4-0.1-18.6-1-27.7-3.5c-8.5-2.3-18.8-5.3-24.2-12.7C87.3,291.2,85.2,292.4,86.1,293.7L86.1,293.7z"/>
	</g>
</g>
<g>
	<g>
		<path class="st0" d="M197.3,311.4c26.4-1.3,56.4,8.4,80.7-6.2c1.4-0.8,0.1-3-1.3-2.2c-23.7,14.3-53.5,4.6-79.4,5.9
			C195.7,309,195.7,311.5,197.3,311.4L197.3,311.4z"/>
	</g>
</g>
<g>
	<g>
		<path class="st0" d="M245.8,236.9c8.2,23.4,17.1,46.1,30.7,67c0.9,1.3,3,0.1,2.2-1.3c-13.5-20.7-22.4-43.2-30.5-66.4
			C247.6,234.7,245.2,235.4,245.8,236.9L245.8,236.9z"/>
	</g>
</g>
<g>
	<g>
		<path class="st0" d="M247.5,237.6c2.3-10,5-20,7-30.1c0.9-4.4,1.4-8.8,1.1-13.3c-0.3-4.9-1.5-9.6-1-14.5s2.3-10.1,4.6-14.4
			c1.8-3.3,3.5-5.7,7.9-4.9c1.9,0.3,3.6,1.5,5.5,1.8c6.3,1,3.6-4.6,2.5-8.4c-0.5-1.5-2.9-0.9-2.4,0.7c0.1,0.4,1.8,5.4,1.7,5.4
			c-1.1,0.7-5.3-1.6-6.5-1.9c-2.6-0.6-5-0.4-7.1,1.3c-4.9,3.8-7.6,13.2-8.4,19c-0.6,4.1,0,8.2,0.5,12.3c0.6,5.6,0.4,10.8-0.7,16.3
			c-2,10.1-4.6,20.1-7,30.1C244.7,238.5,247.1,239.1,247.5,237.6L247.5,237.6z"/>
	</g>
</g>
<g>
	<g>
		<path class="st0" d="M259.5,52.6c3.1,8.6,2.8,17.5,3.1,26.5c0.3,8.5,1.4,16.9,2.9,25.2c1.5,8.6,3.2,17.1,4.5,25.7
			c1.3,8.7,0.9,17.9,3,26.5c0.4,1.6,2.8,0.9,2.4-0.7c-2-8.3-1.7-17.2-2.9-25.6c-1.3-8.9-3.1-17.7-4.6-26.6
			c-1.6-9.1-2.7-18.1-2.9-27.3c-0.2-8.3-0.3-16.5-3.1-24.4C261.4,50.4,259,51,259.5,52.6L259.5,52.6z"/>
	</g>
</g>
<g>
	<g>
		<path class="st0" d="M194,48.4c1.2-3.6,2.5-7.2,6-9.2c2.9-1.7,6.5-2.1,9.8-2.2c6.2,0,12.3,2.1,18,4.2c5.3,2,10.5,4.2,16,5.6
			c6.4,1.6,11.8,2.7,16.3,8c1,1.2,2.8-0.5,1.8-1.8c-4.6-5.4-9.9-6.8-16.6-8.4c-8-2-15.3-5.6-23.1-8c-6.3-1.9-13.3-3.1-19.7-1.2
			c-6.3,1.8-8.8,6.4-10.8,12.2C191,49.2,193.5,49.9,194,48.4L194,48.4z"/>
	</g>
</g>
<g>
	<g>
		<path class="st0" d="M82.4,48.7c1.1-4.9,2.5-10.4,7.8-12.1c5.1-1.6,12.2-0.5,17.5-0.4c2.4,0.1,2.8-0.2,4.2,2
			c1.8,2.8,0.4,1.4,0.9,3.4c0.3,1.2-0.1,1.7,0.9,2.7c1.9,2,6.6,1.2,9,1.3c23.1,0.7,46.3,1.4,69.4,2.2c1.6,0.1,1.6-2.4,0-2.5
			c-13.5-0.4-27.1-0.8-40.6-1.3c-6.6-0.2-13.2-0.4-19.8-0.6c-3.6-0.1-7.3-0.2-10.9-0.3c-0.8,0-3.3,0.3-4-0.1c-2.6-1.7-0.7-2.3-1-4
			c-0.5-2.8-1.3-4.3-4.3-5c-5.1-1.2-11.4-0.4-16.7-0.4c-9.4,0-12.8,5.9-14.7,14.4C79.7,49.6,82.1,50.2,82.4,48.7L82.4,48.7z"/>
	</g>
</g>
<g>
	<g>
		<path class="st0" d="M59.2,116.7c-0.1-12.3,6.8-22.6,11.5-33.5c4.8-11.3,5.5-24,11.4-34.8c0.8-1.4-1.4-2.7-2.2-1.3
			C73.6,58.5,73,71.9,67.7,83.7c-4.8,10.7-11.1,20.9-11,33C56.8,118.3,59.3,118.3,59.2,116.7L59.2,116.7z"/>
	</g>
</g>
<g>
	<g>
		<path class="st0" d="M55.4,116.6c4.2,6.5,11.9,8.4,19.2,6.3c8.6-2.5,14.6-8,16.6-16.8c1.2-5.1,2.1-10.3,3.3-15.5
			c0.5-2.2,1.1-4.5,2.2-6.5c2-3.4,4.1-3.1,7.5-4.2c7.7-2.5,1.8-10.3-0.1-14.7c-0.4,0.6-0.7,1.3-1.1,1.9c1-0.1,2.1-0.1,3.1-0.2
			c1.6-0.1,1.6-2.6,0-2.5c-1,0.1-2.1,0.1-3.1,0.2s-1.5,1-1.1,1.9c0.7,1.5,1.6,2.8,2.3,4.3c0.5,0.8,0.9,1.7,1.2,2.7
			c-0.6,3-2,4.4-4.4,4.4c-1.4,0.7-2.8,0.8-4.1,1.9c-4,3.4-4.8,9.5-5.8,14.3c-1.7,8.2-2.1,17.6-9.6,22.7c-7.3,5-18.4,7.2-24-1.4
			C56.7,113.9,54.5,115.2,55.4,116.6L55.4,116.6z"/>
	</g>
</g>
<g>
	<g>
		<path class="st0" d="M105.4,66.8c11.9,0.3,23.8,0.5,35.7,0.8c6,0.1,11.9,0.3,17.9,0.4c5,0.1,16.9-1.9,19,4
			c2.1,5.8-0.8,13.6-2,19.4c-1.1,5.6-2.3,11.1-3.4,16.7c-1.3,6.5-3.3,16.1,5.2,18.4c1.6,0.4,2.2-2,0.7-2.4c-8.1-2.2-3.6-14.5-2.5-20
			c1.2-5.9,2.4-11.8,3.6-17.6c1.1-5.6,4.2-18.3-3.8-20.4c-4.5-1.2-10.1-0.4-14.7-0.5c-6-0.1-11.9-0.3-17.9-0.4
			c-12.6-0.3-25.1-0.5-37.7-0.8C103.7,64.3,103.7,66.8,105.4,66.8L105.4,66.8z"/>
	</g>
</g>
<g>
	<g>
		<path class="st0" d="M261.8,75.4c1.8,6.4-3.4,15.5-5.8,21.4c-2.8,6.9-6,13.5-9.5,20.1c-0.8,1.4,1.4,2.7,2.2,1.3
			c3.9-7.3,7.4-14.8,10.4-22.4c2.5-6.2,7-14.2,5.1-21C263.8,73.2,261.3,73.8,261.8,75.4L261.8,75.4z"/>
	</g>
</g>
<g>
	<g>
		<path class="st0" d="M245,118.1c-0.3,0.4-0.7,0.9-1,1.3c-0.4,0.5-0.1,1.4,0.4,1.7c0.6,0.4,1.3,0.1,1.7-0.4c0.3-0.4,0.7-0.9,1-1.3
			c0.4-0.5,0.1-1.4-0.4-1.7C246,117.2,245.4,117.5,245,118.1L245,118.1z"/>
	</g>
</g>
<g>
	<g>
		<path class="st0" d="M243.2,120.1c-4.4,2-9.4,2-14.1,2.5c-1.6,0.2-1.6,2.7,0,2.5c5.2-0.5,10.6-0.6,15.4-2.8
			C245.9,121.6,244.6,119.5,243.2,120.1L243.2,120.1z"/>
	</g>
</g>
<g>
	<g>
		<path class="st0" d="M177.7,126.2c1.6,0,1.6-2.5,0-2.5C176.1,123.8,176.1,126.2,177.7,126.2L177.7,126.2z"/>
	</g>
</g>
<g>
	<g>
		<path class="st0" d="M176.7,126.4c18,0.2,36,0,54-0.6c1.6-0.1,1.6-2.6,0-2.5c-18,0.6-36,0.8-54,0.6
			C175.1,123.8,175.1,126.3,176.7,126.4L176.7,126.4z"/>
	</g>
</g>
<g>
	<g>
		<path class="st0" d="M56.9,117c-1.4,5.7,2.3,10.5,5.2,15.1c0.9,1.4,3,0.1,2.2-1.3c-2.4-3.9-6.1-8.3-5-13.2
			C59.7,116.1,57.3,115.5,56.9,117L56.9,117z"/>
	</g>
</g>
<g>
	<g>
		<path class="st0" d="M84.9,115.5c-0.3,3.4-0.4,7.3,1.6,10.2c2.4,3.4,6.8,3.5,10.5,4c12.4,1.8,25,2.7,37.6,2.5
			c6.4-0.1,12.8-0.7,19.2-0.4c4.9,0.2,9.9,1.5,14.8,0.2c3.1-0.8,6.1-2.8,7.5-5.8c1-2.1,1.2-4.3-1.3-5.1c-1.5-0.5-2.2,1.9-0.7,2.4
			c1.4,0.4-2.5,4.4-3.4,4.9c-2.3,1.4-4.8,1.6-7.4,1.6c-3.5,0-7-0.7-10.5-0.8c-8-0.2-16.1,0.6-24.1,0.4c-7.9-0.1-15.7-0.6-23.5-1.5
			c-4.1-0.5-8.8-0.6-12.8-1.8c-5.3-1.6-5.3-6.4-4.9-11C87.5,113.9,85,113.9,84.9,115.5L84.9,115.5z"/>
	</g>
</g>
<g>
	<g>
		<path class="st0" d="M23.8,111.4c3.3,7.6,6.9,11.3,14.5,14.6c7.7,3.4,15.6,6.1,24.2,5.3c1.6-0.1,1.6-2.6,0-2.5
			c-8.1,0.8-15.6-1.8-22.9-5c-2.9-1.3-6-2.5-8.3-4.7c-2.5-2.4-3.9-5.8-5.2-9C25.3,108.7,23.2,110,23.8,111.4L23.8,111.4z"/>
	</g>
</g>
<g>
	<g>
		<path class="st0" d="M233.2,52.8c-7.6,0.4-14.7,4.7-15.5,13.2c-0.7,8.1,9.8,10.4,15.7,10c6.5-0.5,15.1-1,15.5-9.5
			c0.2-3.6,0.5-6.7-2.7-9c-1.6-1.1-3.6-1.6-5.4-2c-2.8-0.7-5.5-2-8.3-2.5c-1.6-0.3-2.2,2.1-0.7,2.4c2.3,0.4,4.5,1.6,6.8,2.2
			c3.3,0.8,7,2.1,7.8,5.8c1.5,6.9-5,9.4-10.6,9.9c-4.1,0.3-10.9,1.3-13.6-2.8c-2.5-3.8-1.5-7.5,0.9-10.8c2.3-3.2,6.3-4.1,10-4.3
			C234.8,55.2,234.8,52.7,233.2,52.8L233.2,52.8z"/>
	</g>
</g>
<g>
	<g>
		<path class="st0" d="M217.8,66.5c-0.9,4.4-2.5,9.3-2.6,13.8c-0.1,3.4,0,6.9,1.8,9.8c0.9,1.4,3,0.1,2.2-1.3
			c-1.6-2.5-1.5-7.7-1.1-10.6c0.5-3.7,1.5-7.5,2.2-11.2C220.5,65.6,218.1,64.9,217.8,66.5L217.8,66.5z"/>
	</g>
</g>
<g>
	<g>
		<path class="st0" d="M217.1,90.9c3.2,3.6,8,2.8,12.3,3.7c4.5,1,9.3,1.5,13.9,0.6c8.3-1.7,15.8-8.4,16.3-17.1
			c0.1-1.6-2.4-1.6-2.5,0c-0.4,8.6-9,14.5-17.1,15c-3.6,0.2-7-0.3-10.6-1c-3.5-0.8-7.9,0.1-10.5-2.9
			C217.8,87.9,216.1,89.7,217.1,90.9L217.1,90.9z"/>
	</g>
</g>
<g>
	<g>
		<path class="st0" d="M254.3,74.7c-1.2,3.3-3.2,6-5.8,8.3c-1.2,1,0.5,2.8,1.8,1.8c3-2.5,5.1-5.7,6.5-9.4
			C257.3,73.9,254.9,73.2,254.3,74.7L254.3,74.7z"/>
	</g>
</g>
<g>
	<g>
		<path class="st0" d="M252.2,70.8c-1.3,2.9-3.8,4.8-6.2,6.7c-1.3,1,0.5,2.7,1.8,1.8c2.6-2,5.2-4.1,6.6-7.2
			C255.1,70.6,252.9,69.3,252.2,70.8L252.2,70.8z"/>
	</g>
</g>
<g>
	<g>
		<path class="st0" d="M248.7,69.4c-0.9,1.8-2.6,3.1-4.2,4.4c-1.3,1,0.5,2.8,1.8,1.8c1.7-1.4,3.5-2.9,4.5-4.9
			C251.5,69.3,249.4,68,248.7,69.4L248.7,69.4z"/>
	</g>
</g>
<g>
	<g>
		<path class="st0" d="M153.8,200.5c-12.1-0.2-30.4-0.5-36,12.8c-2.2,5.3-3.2,11.3-0.2,16.4c1.7,3,4.3,5.7,6.7,8.2s5,5.7,8.1,7.4
			c13.3,7.1,29.2,9,43.6,3.3c9.8-3.9,24.2-14.8,15-26.1c-2.3-2.9-5.5-4.5-8.2-7c-2.9-2.6-5.1-5.6-8.4-7.9
			c-6.7-4.5-14.7-6.5-22.6-7.7c-1.6-0.2-2.3,2.2-0.7,2.4c6.9,1.1,13.9,2.6,20,6.2c5.5,3.2,9.6,8.4,14.5,12.3c5.2,4.1,8,9.6,3.2,15.6
			c-2.2,2.8-5.1,5.1-8.2,7c-6.7,4.1-14.6,5.8-22.4,5.9c-4.1,0-8.4-0.1-12.3-1.1c-3.5-0.8-6.3-2.7-9.4-4.2c-6.5-3-15.6-10.9-17.8-18
			c-2.7-8.7,3.7-17.7,11.5-20.6c7.5-2.8,15.7-2.7,23.6-2.5C155.4,203,155.4,200.5,153.8,200.5L153.8,200.5z"/>
	</g>
</g>
<g>
	<g>
		<path class="st0" d="M191.7,141.9c-5-0.8-7.9,0.4-9.1,5.4c-1.8,7.8-1.9,16.2-2.6,24.2c-0.6,7.4-2.8,16.6-1.2,24
			c1.2,5.8,6.7,3.5,10.9,2.3c1.5-0.4,0.9-2.8-0.7-2.4c-3.1,0.9-6.2,2.9-7.9-1.4c-0.7-1.9,0.1-5.8,0.2-7.8c0.3-4.6,0.7-9.1,1.1-13.7
			c0.4-4.5,0.7-9,1.2-13.5c0.5-5-0.2-15.9,7.4-14.7C192.6,144.6,193.2,142.2,191.7,141.9L191.7,141.9z"/>
	</g>
</g>
<g>
	<g>
		<path class="st0" d="M73.3,141.2c1.5-0.6,5.2,2,6.1,3.2c0.6,0.8,1,1.9,1.5,2.8c1.3,2.4,2.6,4.8,3.9,7.2c2.3,4.4,3.8,9,5.7,13.5
			c1.8,4.2,4.2,8.1,6.4,12c1.4,2.5,2.8,4.9,4.2,7.4c0.6,1.1,5.8,8.4,0.9,7.7c-1.6-0.2-2.3,2.2-0.7,2.4c4.3,0.6,7.1-1.3,5.2-5.6
			c-3.3-7.7-8.9-14.6-12.6-22.2c-1.8-3.7-3-7.7-4.6-11.5c-1.6-3.6-3.6-7.1-5.5-10.6c-2.3-4.3-5.2-11.1-11.3-8.8
			C71.1,139.3,71.7,141.8,73.3,141.2L73.3,141.2z"/>
	</g>
</g>
<g>
	<g>
		<path class="st0" d="M128.5,257.4c-8.2-3.5-6.8,11-7,15c-0.3,5.4-2.1,11.6-1.5,16.9c0.3,2.9,2,4.5,4.8,4.6c1.6,0,1.6-2.5,0-2.5
			c-4-0.1-1.2-13.1-1-15.2c0.1-1.6,0.4-17.9,3.5-16.6C128.7,260.1,130,258,128.5,257.4L128.5,257.4z"/>
	</g>
</g>
<g>
	<g>
		<path class="st0" d="M195.3,260.8c2.8-2.9,9,6.8,9.8,8.2c1.7,2.8,3,5.8,4.4,8.8c1.2,2.8,2.4,5.6,3.8,8.3c0.7,1.5,1.5,2.9,2.3,4.3
			c0.2,0.4,2.9,6.6,1.9,6.2c-1.5-0.6-2.1,1.8-0.7,2.4c3.9,1.6,4.6-1.3,3.6-4.4c-2-6-5.9-11.6-8.4-17.3c-1.8-4.1-11.3-25.6-18.4-18.2
			C192.4,260.1,194.1,261.9,195.3,260.8L195.3,260.8z"/>
	</g>
</g>
<g>
	<g>
		<path class="st0" d="M275.9,161.7c5.6-3.9,12.8-9.6,19.8-10c3.8-0.3,7.8,1.1,11.4,2c3.8,0.9,7.5,1.7,11.3,2.6
			c14.4,3.4,28.7,7,42.8,11.4c1.5,0.5,2.2-1.9,0.7-2.4c-15.9-5-32.1-9-48.4-12.8c-6.1-1.4-13.5-4.5-19.9-3.2
			c-6.8,1.4-13.4,6.3-18.9,10.2C273.3,160.4,274.5,162.6,275.9,161.7L275.9,161.7z"/>
	</g>
</g>
<g>
	<g>
		<path class="st0" d="M360.1,167.4c4.5-0.3,9.8,2.2,14.2,3.1c4.5,0.9,9,1.7,13.4,2.9c4.8,1.3,9,3.7,13.6,5.5
			c4.9,2,9.6,3.4,13.7,6.9c1.2,1,3-0.7,1.8-1.8c-3.6-3.1-7.4-4.9-11.9-6.5c-5-1.8-9.7-4.5-14.8-6.1c-4.9-1.5-10-2.4-15-3.4
			c-4.8-1-10.1-3.5-14.9-3.2C358.5,165,358.5,167.5,360.1,167.4L360.1,167.4z"/>
	</g>
</g>
<g>
	<g>
		<path class="st0" d="M416.6,184.1c-1,1.2-1.1,2.3-0.2,3.2c0.5,0.7,0.9,1.4,1.4,2c0.6,0.9,1.1,1.9,1.7,2.8c1.7,3,3,6.2,4,9.5
			c2,6.5,1.9,13.1,2.7,19.7c0.6,5.4,2.3,10.5,3.5,15.8c1.4,6.3,1.6,12.3,3.9,18.4c0.6,1.5,3,0.8,2.4-0.7c-2.5-6.5-2.7-13.3-4.3-20.1
			c-1.8-7.4-3-14.3-3.6-21.8c-0.5-6-1.8-11.8-4.1-17.4c-1.6-3.9-4-9.9-7.7-12.3c-0.5-0.3-1.1-0.2-1.5,0.2c-0.1,0.1-0.1,0.1-0.2,0.2
			c-0.4,0.4-0.4,1-0.2,1.5c0,0.1,0.1,0.1,0.1,0.2C415.2,186.8,417.3,185.6,416.6,184.1L416.6,184.1z"/>
	</g>
</g>
<g>
	<g>
		<path class="st0" d="M433.7,255.9c3.2,8.4,6,19.3,5.2,28.3c-0.5,5.7-3.4,10.9-5.6,16c-2,4.6-3.9,9.2-5.9,13.8
			c-0.6,1.5,1.5,2.7,2.2,1.3c2.3-5.4,4.7-10.9,7-16.3c1.8-4.2,4-8.5,4.7-13c1.4-9.7-1.6-21.7-5.1-30.7
			C435.5,253.8,433.1,254.4,433.7,255.9L433.7,255.9z"/>
	</g>
</g>
<g>
	<g>
		<path class="st0" d="M405.4,356.7c3,0.5,4.9-2.2,6.7-4.3c3.1-3.6,5.8-7.7,8.6-11.6c2.5-3.5,4.7-7,5.8-11.2
			c1.2-4.8-0.3-10.9,3.1-14.9c1-1.2-0.7-3-1.8-1.8c-4.3,5.1-2.2,12.4-4.4,18.4c-1.5,4.2-4.4,7.7-7,11.2c-1.5,2.1-7.2,12.3-10.3,11.7
			C404.5,354,403.9,356.4,405.4,356.7L405.4,356.7z"/>
	</g>
</g>
<g>
	<g>
		<path class="st0" d="M343.8,346.2c10.2,4.8,21.1,6.8,31.9,9.3c5.2,1.2,10.9,3.8,16.2,4.2c4.7,0.3,9.8-1.4,14.4-2.2
			c1.6-0.3,0.9-2.7-0.7-2.4c-5.3,1-11.1,2.9-16.4,1.6c-4.9-1.2-9.7-2.8-14.6-3.9c-10.1-2.3-20.2-4.3-29.6-8.7
			C343.7,343.4,342.4,345.5,343.8,346.2L343.8,346.2z"/>
	</g>
</g>
<g>
	<g>
		<path class="st0" d="M276.4,303.2c2.2,6.5,4.4,13.2,7.4,19.5c2.4,5.1,5.9,7.1,11.3,8.3c1.6,0.3,2.2-2.1,0.7-2.4
			c-6.9-1.5-9.2-5.2-11.7-11.5c-1.9-4.8-3.7-9.7-5.3-14.6C278.3,301,275.9,301.7,276.4,303.2L276.4,303.2z"/>
	</g>
</g>
<g>
	<g>
		<path class="st0" d="M294.5,331c17,5.1,33.9,10.2,50.6,16.1c1.5,0.5,2.2-1.9,0.7-2.4c-16.7-5.9-33.7-11-50.6-16.1
			C293.7,328.1,293,330.5,294.5,331L294.5,331z"/>
	</g>
</g>
<g>
	<g>
		<path class="st0" d="M415.8,186.3c-3,13.4-6.6,26.7-10.2,39.9c-3.3,11.9-7.8,24.2-9.1,36.5c-1.3,12,1.2,25,3.6,36.7
			c2.7,13,6.6,25.7,11.6,38.1c0.6,1.5,3,0.8,2.4-0.7c-4.7-11.5-8.4-23.2-11-35.3c-2.7-12.4-5.4-26.1-4.1-38.8
			c1.3-12.4,6-24.8,9.3-36.8c3.6-12.9,7-25.9,10-39C418.6,185.4,416.2,184.8,415.8,186.3L415.8,186.3z"/>
	</g>
</g>
<g>
	<g>
		<path class="st0" d="M435.7,265c-2.3,7.4-3,15.1-5.4,22.5c-2.4,7.4-5,14.8-7.5,22.2c-2.5,7.5-4.2,16.6-8.3,23.3
			c-3.9,6.5-11.1,9.6-17.8,12.4c-1.5,0.6-0.8,3,0.7,2.4c5.9-2.5,12.1-5.1,16.5-9.9c5-5.5,6.6-13.6,8.9-20.4
			c2.9-8.7,5.9-17.5,8.8-26.2c2.8-8.5,3.9-17.3,6.5-25.8C438.6,264.1,436.2,263.4,435.7,265L435.7,265z"/>
	</g>
</g>
<g>
	<g>
		<path class="st0" d="M278.1,310.4c2.7,4.7,7,7.2,11.7,9.5c6,2.9,12.1,5.4,18.3,7.8c13.7,5.2,27.8,9.2,42,12.8
			c6.9,1.7,13.7,3.6,20.7,5c6.6,1.3,13.2,0.9,19.7,2.2c5,1,9.9,2.1,14.7-0.6c4.3-2.4,7.3-6.8,9.9-10.8c0.9-1.3-1.3-2.6-2.2-1.3
			c-3.3,5-7.3,10.9-13.9,11.3c-5.2,0.3-10.5-1.9-15.8-2.2c-12.4-0.6-24.2-3.9-36.2-7c-11.5-3-22.8-6.2-34-10.2
			c-6.3-2.3-12.6-4.8-18.7-7.5c-5.4-2.5-11.1-4.9-14.2-10.2C279.4,307.8,277.3,309,278.1,310.4L278.1,310.4z"/>
	</g>
</g>
<g>
	<g>
		<path class="st0" d="M247.1,236.7c5.3,10.2,17.2,13.6,27.3,17.2c15.2,5.5,30.2,11,46,14.4c15.5,3.3,31,6.5,46.5,9.8
			c6.8,1.4,13.8,3.7,20.8,4c4,0.2,9.8-0.7,10.8-5.3c0.4-1.6-2.1-2.2-2.4-0.7c-1.6,7-16.5,2.1-20.8,1.2c-6.7-1.4-13.4-2.8-20.1-4.2
			c-12.8-2.7-25.6-5.3-38.4-8.1c-12.7-2.8-24.9-7.3-37.1-11.8c-10.6-3.8-24.7-6.9-30.4-17.8C248.5,234,246.4,235.3,247.1,236.7
			L247.1,236.7z"/>
	</g>
</g>
<g>
	<g>
		<path class="st0" d="M273.8,161.6c8.4,2.2,16.6,5.2,25.1,6.9c8.3,1.6,16.7,1.4,24.9,3.8c4.1,1.2,8,2.9,11.9,4.7
			c3.4,1.6,7.8,3,10.4,5.8c4.2,4.5,5.3,11.1,1.7,16.2c-2.6,3.6-5.7,9.2-10.6,9.9c-1.6,0.2-1.6,2.7,0,2.5c3.5-0.5,5.8-2.3,8.1-5
			c2.5-3,6.3-6.9,7.5-10.6c2.5-8.1-5.2-16-11.8-19c-9.5-4.5-18.9-8.1-29.5-9.1c-12.9-1.2-24.6-5.1-37-8.4
			C273,158.8,272.3,161.2,273.8,161.6L273.8,161.6z"/>
	</g>
</g>
<g>
	<g>
		<path class="st0" d="M255.4,194.1c0,0,1.3-3,1.3-2.9c2.1-3.1,4-3.7,7.2-4.4c4-0.8,8-0.5,12,0c7.2,1,14.3,2.9,21.5,4.1
			s13.6,2.9,19.7,7.1c5.8,4,14.2,8.5,17.8,14.6c0.8,1.4,3,0.1,2.2-1.3c-3.9-6.6-12.5-11.3-18.7-15.5c-7.4-5.1-15.1-6.4-23.8-7.9
			c-8.5-1.5-17-4.3-25.6-4.1c-3.5,0.1-7.5,0.5-10.6,2.1c-3.2,1.7-3.2,3.9-5,6.9C252.5,194.2,254.6,195.5,255.4,194.1L255.4,194.1z"
			/>
	</g>
</g>
<g>
	<g>
		<path class="st0" d="M377,184.6c-7.5-3.7-16-0.1-19.2,7.5c-4.2,9.9,2.6,15.3,12,16.4c8.7,1,18.3,1.3,19.7-9.1
			c0.5-4-0.2-8.5-2.9-11.6c-2.8-3.3-6.8-4-10.9-4.5c-1.6-0.2-1.6,2.3,0,2.5c6.9,0.9,11.6,4.4,11.4,11.7c-0.1,4.6-2,7.9-6.8,8.8
			c-2.4,0.5-5.4,0.1-7.8,0c-7.2-0.4-15.9-2.7-12.9-12.1c2.2-6.8,9.5-10.6,16.1-7.4C377.2,187.4,378.4,185.3,377,184.6L377,184.6z"/>
	</g>
</g>
<g>
	<g>
		<path class="st0" d="M357.1,205.9c0-0.1,0.1-0.2,0.1-0.3c-0.2,0.2-0.4,0.5-0.6,0.7c0,0,2.9,1.8,3.2,2c1.1,0.5,2.2,0.8,3.5,0.9
			c1.6,0.1,1.6-2.4,0-2.5c-2.2-0.2-3.6-1.5-5.4-2.5c-1.3-0.7-2.7-0.5-3.2,1S356.6,207.4,357.1,205.9L357.1,205.9z"/>
	</g>
</g>
<g>
	<g>
		<path class="st0" d="M354.5,207.8c1.6,4,5,6.9,9.2,7.7c1.6,0.3,2.2-2.1,0.7-2.4c-3.3-0.6-6.2-2.8-7.5-5.9
			C356.3,205.6,353.8,206.3,354.5,207.8L354.5,207.8z"/>
	</g>
</g>
<g>
	<g>
		<path class="st0" d="M355.3,212.4c0.1-0.1,0.1-0.2,0.2-0.2c-0.4,0.2-0.7,0.4-1.1,0.6c0.1,0,0.2,0,0.3,0c-0.3-0.1-0.6-0.2-0.9-0.4
			c0.4,0.5,0.6,1.6,0.9,2.1c0.5,0.9,1,1.8,1.7,2.6c1.3,1.6,2.8,2.9,4.6,4c1.4,0.8,2.7-1.3,1.3-2.2c-2.4-1.4-4.3-3.4-5.5-5.9
			c-0.4-0.8-0.6-2.1-1.5-2.6s-1.7-0.1-2.2,0.7C352.2,212.5,354.4,213.7,355.3,212.4L355.3,212.4z"/>
	</g>
</g>
<g>
	<g>
		<path class="st0" d="M356.3,220.4c2,4.2,7.7,5.5,11.9,6.3c5.9,1.2,12.1,1,17.9-0.6c4.7-1.3,9.3-3.7,12.4-7.5
			c1.6-2.1,2.9-5.1-0.5-6c-1.6-0.4-2.2,2-0.7,2.4s-6.4,6.5-7.1,6.9c-3.4,1.7-7.3,2.6-11.1,2.9c-5.5,0.5-17.7,0.2-20.6-5.7
			C357.8,217.7,355.7,219,356.3,220.4L356.3,220.4z"/>
	</g>
</g>
<g>
	<g>
		<path class="st0" d="M392.6,211.5c-0.1,1.9-4.4,4-5.8,4.9c-2.2,1.2-4.4,2.2-6.8,2.9c-1.5,0.5-0.9,2.9,0.7,2.4
			c3.3-1,6.4-2.5,9.3-4.4c2.1-1.4,5.1-3.1,5.2-5.8C395.1,209.9,392.6,209.9,392.6,211.5L392.6,211.5z"/>
	</g>
</g>
<g>
	<g>
		<path class="st0" d="M389.5,207.7c-2.1,3-5.1,4.9-8.6,5.6c-1.6,0.3-0.9,2.7,0.7,2.4c4.2-0.8,7.7-3.2,10.1-6.7
			C392.6,207.6,390.5,206.4,389.5,207.7L389.5,207.7z"/>
	</g>
</g>
<g>
	<g>
		<path class="st0" d="M390.8,203.4c-0.5-2.9,1.7-5.9-0.9-8.3c-1.2-1.1-2.9,0.7-1.8,1.8c1,0.9,0.7,2.2,0.5,3.4
			c-0.3,1.3-0.4,2.5-0.2,3.8C388.6,205.7,391,205,390.8,203.4L390.8,203.4z"/>
	</g>
</g>
<g>
	<g>
		<path class="st0" d="M256.2,172.4c5.2-4.2,10.5-3.8,16.6-2.3c3.7,0.9,8.8,0.3,12.1,2.2c1.4,0.8,2.6-1.3,1.3-2.2
			c-1.9-1.1-3.6-1.4-5.8-1.6c-4.2-0.4-8-1.5-12.1-2.1c-5.2-0.7-9.8,0.9-13.8,4.1C253.1,171.6,254.9,173.4,256.2,172.4L256.2,172.4z"
			/>
	</g>
</g>
<g>
	<g>
		<path class="st0" d="M349,198c-3.2-3-6.4-6-9.6-9.1c-2.3-2.2-4.4-4.7-7.6-5.4c-1.6-0.3-2.2,2.1-0.7,2.4c3.3,0.7,6,4.2,8.3,6.5
			c2.6,2.4,5.2,4.9,7.7,7.3C348.4,200.9,350.2,199.1,349,198L349,198z"/>
	</g>
</g>
<g>
	<g>
		<path class="st0" d="M264.5,76c5.5-5.9,11.4-8.2,18.8-10.7c5.3-1.8,8.8-6.2,12.5-10.2c2.3-2.5,4.6-4.9,6.9-7.4
			c2.6-2.8,5.2-6.6,8.6-8.5c7.5-4.2,18.7,1.4,24.5,6.1c1.2,1,3-0.8,1.8-1.8c-5.4-4.4-11.9-7.4-18.9-7.9c-8.1-0.6-11.8,4.1-17,9.7
			c-6.1,6.5-12,15.3-20.7,18.1c-7.1,2.3-13,5.3-18.1,10.8C261.6,75.4,263.4,77.2,264.5,76L264.5,76z"/>
	</g>
</g>
<g>
	<g>
		<path class="st0" d="M335.2,45.3c9.5,4.4,18.2,10.5,25.5,18.1c3.6,3.7,7.3,7.8,9.6,12.4c2.8,5.6,2.4,12.2,2.8,18.4
			c0.1,1.6,2.6,1.6,2.5,0c-0.3-5.6,0.1-11.9-2-17.2c-1.9-4.8-5.5-9.1-8.9-13c-7.9-8.9-17.5-15.9-28.2-20.9
			C335.1,42.5,333.8,44.7,335.2,45.3L335.2,45.3z"/>
	</g>
</g>
<g>
	<g>
		<path class="st0" d="M373,94.8c3.8,24.8,6.7,49.7,8.7,74.8c0.1,1.6,2.6,1.6,2.5,0c-2-25.2-5-50.4-8.8-75.4
			C375.1,92.5,372.7,93.2,373,94.8L373,94.8z"/>
	</g>
</g>
<g>
	<g>
		<path class="st0" d="M290.2,90.2c-1.6-4.6-9.9,0.6-12,2.4c-6.1,5.1-3.1,13.3-2,20.2c1.6,9.9,3.6,19.7,6.1,29.4
			c0.3,1.1,2.5,14.6,6,10.2c1-1.2-0.8-3-1.8-1.8c1.1-1.4-1-5.9-1.4-7.3c-0.7-2.7-1.4-5.5-2-8.2c-1.2-5.2-2.3-10.4-3.3-15.6
			c-1-5.4-1.9-10.9-2.6-16.4c-0.5-3.6-0.4-6.1,2.6-8.6c0.7-0.6,7.6-4.5,7.9-3.7C288.3,92.4,290.7,91.7,290.2,90.2L290.2,90.2z"/>
	</g>
</g>
<g>
	<g>
		<path class="st0" d="M283.2,137c2.3-2.4,4.7-4.8,7-7.3c1.1-1.2-0.6-2.9-1.8-1.8c-2.3,2.4-4.7,4.8-7,7.3
			C280.3,136.4,282.1,138.1,283.2,137L283.2,137z"/>
	</g>
</g>
<g>
	<g>
		<path class="st0" d="M282.8,92.3c2.6,10.4,4.4,21,5.6,31.7c0.2,1.6,2.7,1.6,2.5,0c-1.2-10.9-3-21.7-5.7-32.3
			C284.8,90.1,282.4,90.8,282.8,92.3L282.8,92.3z"/>
	</g>
</g>
<g>
	<g>
		<path class="st0" d="M304.4,42.8c-6.3,3.7,2.7,12.4,7.3,13.1c7.3,1.1,18.7-4.3,18.9-12.6c0.2-8.5-11.8-8.4-17.3-6
			c-5.2,2.3-15.4,10.4-7.5,15.8c1.3,0.9,2.6-1.3,1.3-2.2c-5.6-3.8,4-9.8,6.8-11.1c4.3-2,15.5-3.2,13.9,5.4
			c-0.8,4.1-6.7,6.9-10.3,7.9c-1.9,0.5-3.7,0.8-5.6,0.4c-2.3-0.2-4.1-1.3-5.4-3.5c-1.2-1.5-1.5-3.1-0.8-4.9
			C307,44.1,305.8,42,304.4,42.8L304.4,42.8z"/>
	</g>
</g>
<g>
	<g>
		<path class="st0" d="M301.3,53.9c0.3,0.8-0.2,1.6,0.1,2.3c0.3,0.8,0.9,1,1.2,1.6c1,1.8-0.4,4.1,0.4,6.3c0.4,1.2,1.2,1.9,1.3,3
			c0.1,1-0.4,1.9-0.1,3c0.4,1.8,1.7,2.9,3.3,3.6c1.5,0.6,2.1-1.8,0.7-2.4c-2.8-1.2-0.6-3.6-1.2-5.3c-0.2-0.5-0.6-0.9-0.9-1.4
			c-1.1-2-0.6-3.5-0.2-5.4c0.2-1,0.1-1.4-0.4-2.3c-0.6-1.2-1.3-2.4-1.8-3.7C303.1,51.7,300.7,52.3,301.3,53.9L301.3,53.9z"/>
	</g>
</g>
<g>
	<g>
		<path class="st0" d="M311.9,74.1c10,1.5,20.3-1.7,24.9-11.3c0.7-1.4-1.5-2.7-2.2-1.3c-4.1,8.5-13.1,11.5-22.1,10.2
			C311,71.5,310.3,73.9,311.9,74.1L311.9,74.1z"/>
	</g>
</g>
<g>
	<g>
		<path class="st0" d="M332.4,46.9c-1.6,0.6-1.9,2.4-0.9,3.7c0.6,0.8,0.9,0.5,1.2,1.8c0.1,0.5,0,1.1,0.2,1.6
			c0.6,1.4,1.8,2.1,1.5,3.9c-0.3,1.6,2.1,2.3,2.4,0.7c0.3-2-0.2-3.1-1.1-4.8c-0.4-0.8-0.7-5.3-2.7-4.5
			C334.6,48.7,333.9,46.3,332.4,46.9L332.4,46.9z"/>
	</g>
</g>
<g>
	<g>
		<path class="st0" d="M285.7,95.6c7.6,6.2,15,12.7,22.8,18.7c6.3,4.9,13.3,5.2,20.6,2c8.9-3.9,15.9-10.9,24.9-14.7
			c4.4-1.8,8.8-3.3,13.2-5.2c2.7-1.2,6.1-2,6.9-5.1c0.4-1.6-2-2.2-2.4-0.7c-0.8,2.8-8.6,4.7-11.1,5.7c-3.1,1.2-6.3,2.4-9.3,3.7
			c-6.9,3-12.5,7.8-18.9,11.7c-3.8,2.3-8.1,4.2-12.6,4.3c-5.2,0-8.8-2.9-12.6-6c-6.6-5.3-13.1-10.7-19.7-16.1
			C286.3,92.8,284.5,94.6,285.7,95.6L285.7,95.6z"/>
	</g>
</g>
<g>
	<g>
		<path class="st0" d="M222.2,59.4c-0.2,4.4-0.1,8.7,0.2,13.1c0.1,0.8,1.3,0.8,1.2,0c-0.3-4.4-0.4-8.7-0.2-13.1
			C223.5,58.6,222.3,58.6,222.2,59.4L222.2,59.4z"/>
	</g>
</g>
<g>
	<g>
		<path class="st0" d="M224.9,57.1c-0.1,5.7,0,11.4,0.3,17.1c0,0.8,1.3,0.8,1.2,0c-0.3-5.7-0.4-11.4-0.3-17.1
			C226.1,56.3,224.9,56.3,224.9,57.1L224.9,57.1z"/>
	</g>
</g>
<g>
	<g>
		<path class="st0" d="M227.4,56.3c-0.2,6.1-0.2,12.2,0.1,18.3c0,0.8,1.3,0.8,1.2,0c-0.3-6.1-0.3-12.2-0.1-18.3
			C228.7,55.4,227.5,55.4,227.4,56.3L227.4,56.3z"/>
	</g>
</g>
<g>
	<g>
		<path class="st0" d="M230.1,55.1c-0.3,6.5-0.3,12.9-0.1,19.4c0,0.8,1.3,0.8,1.2,0c-0.2-6.5-0.2-12.9,0.1-19.4
			C231.4,54.3,230.2,54.3,230.1,55.1L230.1,55.1z"/>
	</g>
</g>
<g>
	<g>
		<path class="st0" d="M232.8,55.6c-0.2,6.2-0.3,12.5-0.3,18.8c0,0.8,1.3,0.8,1.3,0c0-6.3,0.1-12.5,0.3-18.8
			C234.1,54.8,232.8,54.8,232.8,55.6L232.8,55.6z"/>
	</g>
</g>
<g>
	<g>
		<path class="st0" d="M234.7,56c0.1,6.2,0.1,12.4-0.1,18.6c0,0.8,1.2,0.8,1.2,0c0.2-6.2,0.3-12.4,0.1-18.6
			C236,55.2,234.7,55.2,234.7,56L234.7,56z"/>
	</g>
</g>
<g>
	<g>
		<path class="st0" d="M237,56.6c0.1,5.6,0.2,11.2,0.4,16.8c0,0.8,1.3,0.8,1.2,0c-0.2-5.6-0.3-11.2-0.4-16.8
			C238.2,55.8,237,55.8,237,56.6L237,56.6z"/>
	</g>
</g>
<g>
	<g>
		<path class="st0" d="M239.2,57.1c0.1,5.5,0.1,10.9,0.2,16.4c0,0.8,1.3,0.8,1.2,0c-0.1-5.5-0.1-10.9-0.2-16.4
			C240.4,56.3,239.2,56.3,239.2,57.1L239.2,57.1z"/>
	</g>
</g>
<g>
	<g>
		<path class="st0" d="M241.2,58.3c0.3,4.8,0.4,9.6,0.2,14.4c0,0.8,1.2,0.8,1.2,0c0.1-4.8,0-9.6-0.2-14.4
			C242.4,57.5,241.2,57.4,241.2,58.3L241.2,58.3z"/>
	</g>
</g>
<g>
	<g>
		<path class="st0" d="M244.8,59.1c0-0.1,0-0.2,0-0.3c-0.4,0.1-0.8,0.1-1.2,0.2c0.6,1.5,0.3,3.7,0.4,5.4c0.1,1.9,0.3,3.8,0.5,5.7
			c0.1,0.8,1.3,0.8,1.2,0c-0.2-2.2-0.4-4.4-0.5-6.6c-0.1-1.6,0.2-3.4-0.4-4.8c-0.3-0.6-1.2-0.6-1.2,0.2c0,0.1,0,0.2,0,0.3
			C243.5,59.9,244.7,59.9,244.8,59.1L244.8,59.1z"/>
	</g>
</g>
<g>
	<g>
		<path class="st0" d="M307.1,43.3c0.1,3.2,0.2,6.4,0.3,9.7c0,0.8,1.3,0.8,1.2,0c-0.1-3.2-0.2-6.4-0.3-9.7
			C308.3,42.5,307.1,42.5,307.1,43.3L307.1,43.3z"/>
	</g>
</g>
<g>
	<g>
		<path class="st0" d="M308.8,41.6c-0.1,3.9-0.2,7.9,0.1,11.8c0.1,0.8,1.3,0.8,1.2,0c-0.3-3.9-0.1-7.9-0.1-11.8
			C310.1,40.8,308.8,40.8,308.8,41.6L308.8,41.6z"/>
	</g>
</g>
<g>
	<g>
		<path class="st0" d="M310.5,40.4c0,4.7,0,9.4,0,14.1c0,0.8,1.3,0.8,1.2,0c0-4.7,0-9.4,0-14.1C311.7,39.6,310.5,39.6,310.5,40.4
			L310.5,40.4z"/>
	</g>
</g>
<g>
	<g>
		<path class="st0" d="M312.1,39.5c0.2,2.4,0.3,4.9,0.3,7.3c0,1.1,0,2.3,0,3.4c0,0.6,0,1.1,0,1.7c-0.3,0.9,0,1.6,0.9,2.1
			c-0.4-0.7-1.4-0.1-1.1,0.6v0.1c0.1,0.2,0.3,0.3,0.5,0.3h0.1c0.3,0,0.5-0.2,0.6-0.5c0.6-1.9,0.2-4.6,0.2-6.6c0-2.8-0.1-5.6-0.3-8.4
			C313.3,38.7,312.1,38.7,312.1,39.5L312.1,39.5z"/>
	</g>
</g>
<g>
	<g>
		<path class="st0" d="M305.1,45.3c0.1,1.8,0.2,3.6,0.3,5.3c0,0.8,1.3,0.8,1.2,0c-0.1-1.8-0.2-3.6-0.3-5.3
			C306.3,44.5,305.1,44.5,305.1,45.3L305.1,45.3z"/>
	</g>
</g>
<g>
	<g>
		<path class="st0" d="M314,38.3c-0.1,5.3,0.1,10.6,0.4,15.9c0,0.8,1.3,0.8,1.2,0c-0.3-5.3-0.5-10.6-0.4-15.9
			C315.3,37.5,314,37.5,314,38.3L314,38.3z"/>
	</g>
</g>
<g>
	<g>
		<path class="st0" d="M316.2,37.8c-0.2,5.1,0.1,10.2,0.8,15.3c0.1,0.8,1.3,0.5,1.2-0.3c-0.7-5-1-10-0.8-15
			C317.5,36.9,316.2,36.9,316.2,37.8L316.2,37.8z"/>
	</g>
</g>
<g>
	<g>
		<path class="st0" d="M318.4,37.3c0.4,5.2,1,10.3,1.7,15.5c0.1,0.8,1.4,0.8,1.2,0c-0.7-5.2-1.2-10.3-1.7-15.5
			C319.6,36.5,318.3,36.5,318.4,37.3L318.4,37.3z"/>
	</g>
</g>
<g>
	<g>
		<path class="st0" d="M320.9,37.1c0.1,2.8,0.2,5.5,0.3,8.3c0.1,2-0.3,4.6,0.3,6.6c0.1,0.3,0.6,0.6,0.9,0.4l0.1-0.1
			c0.3-0.3,0.4-0.6,0.1-1c0,0,0,0-0.1-0.1c-0.5-0.6-1.4,0.3-0.9,0.9c0,0,0,0,0.1,0.1c0-0.3,0.1-0.7,0.1-1l-0.1,0.1
			c0.3,0.1,0.6,0.2,0.9,0.4c-0.7-2.1-0.3-5.2-0.3-7.3c-0.1-2.4-0.2-4.8-0.3-7.2C322.1,36.3,320.9,36.3,320.9,37.1L320.9,37.1z"/>
	</g>
</g>
<g>
	<g>
		<path class="st0" d="M323.1,37.8c0.1,2.4,0.2,4.7,0.3,7.1c0.1,1.5-0.2,3.6,0.4,4.9c0.1,0.3,0.6,0.3,0.9,0.2h0.1
			c0.3-0.1,0.3-0.5,0.3-0.7v-0.1c-0.2-0.8-1.4-0.5-1.2,0.3c0.1-0.2,0.1-0.4,0.2-0.6c0.3,0.1,0.6,0.1,0.9,0.2
			c-0.3-0.6-0.1-1.8-0.1-2.5c0-1-0.1-2.1-0.1-3.1c-0.1-1.9-0.2-3.8-0.3-5.8C324.3,37,323,37,323.1,37.8L323.1,37.8z"/>
	</g>
</g>
<g>
	<g>
		<path class="st0" d="M324.9,38.3c0.6,3.1,1,6.1,1.1,9.2c0,0.8,1.3,0.8,1.2,0c-0.2-3.2-0.5-6.4-1.2-9.6
			C326,37.1,324.8,37.5,324.9,38.3L324.9,38.3z"/>
	</g>
</g>
<g>
	<g>
		<path class="st0" d="M360.2,189.1c0.3,5,0.5,10,0.8,15.1c0,0.8,1.3,0.8,1.2,0c-0.3-5-0.5-10-0.8-15.1
			C361.4,188.3,360.2,188.3,360.2,189.1L360.2,189.1z"/>
	</g>
</g>
<g>
	<g>
		<path class="st0" d="M362.7,187.8c0.2,3.9,0.4,7.8,0.7,11.7c0.1,2.2-0.3,5.9,0.7,7.8c0.2,0.4,1,0.4,1.1-0.1v-0.1
			c0.1-0.8-1.1-1.1-1.2-0.3v0.1c0.4,0,0.8-0.1,1.1-0.1c-0.5-1-0.3-3.1-0.4-4.3c-0.1-1.7-0.2-3.4-0.4-5.1c-0.2-3.2-0.4-6.3-0.6-9.5
			C363.9,187,362.7,187,362.7,187.8L362.7,187.8z"/>
	</g>
</g>
<g>
	<g>
		<path class="st0" d="M364.9,186.1c0.3,6.8,0.9,13.6,1.7,20.3c0.1,0.8,1.3,0.8,1.2,0c-0.8-6.7-1.4-13.5-1.7-20.3
			C366.1,185.3,364.9,185.3,364.9,186.1L364.9,186.1z"/>
	</g>
</g>
<g>
	<g>
		<path class="st0" d="M367,185.8c0.4,7.3,0.9,14.6,1.6,21.8c0.1,0.8,1.3,0.8,1.2,0c-0.7-7.3-1.2-14.5-1.6-21.8
			C368.3,184.9,367,184.9,367,185.8L367,185.8z"/>
	</g>
</g>
<g>
	<g>
		<path class="st0" d="M369.3,184.9c0.6,7.4,1.3,14.9,1.8,22.3c0,0.8,1.3,0.8,1.2,0c-0.5-7.4-1.1-14.9-1.8-22.3
			C370.5,184.1,369.2,184.1,369.3,184.9L369.3,184.9z"/>
	</g>
</g>
<g>
	<g>
		<path class="st0" d="M373.9,184.3c-0.1-0.1-0.3-0.2-0.4-0.3c-0.4-0.2-0.8,0-0.9,0.4c0,0.1-0.1,0.2,0,0.3v0.1
			c0,0.2,0.1,0.1,0.1-0.2c0.1-0.1,0.3-0.1,0.4-0.2H373c-0.8,0-0.8,1.2,0,1.2c0.3,0,0.5-0.1,0.6-0.3c0.2-0.2,0.1-0.5,0.1-0.6
			c-0.3,0.1-0.6,0.2-0.9,0.4c0.1,0.1,0.3,0.2,0.4,0.3C373.9,185.9,374.5,184.8,373.9,184.3L373.9,184.3z"/>
	</g>
</g>
<g>
	<g>
		<path class="st0" d="M371.6,184.6c0,3.5,1.1,7.1,1.2,10.7c0.1,4,0,7.9,0.4,11.9c0.1,0.8,1.3,0.8,1.2,0c-0.4-4-0.3-7.9-0.4-11.9
			c-0.1-3.6-1.2-7.2-1.2-10.7C372.8,183.8,371.6,183.8,371.6,184.6L371.6,184.6z"/>
	</g>
</g>
<g>
	<g>
		<path class="st0" d="M375.2,185.8c-0.2,7.4-0.3,14.7-0.1,22.1c0,0.8,1.3,0.8,1.2,0c-0.1-7.4-0.1-14.7,0.1-22.1
			C376.5,184.9,375.2,184.9,375.2,185.8L375.2,185.8z"/>
	</g>
</g>
<g>
	<g>
		<path class="st0" d="M377,185.8c0,7.3,0,14.6,0.1,21.9c0,0.8,1.3,0.8,1.2,0c-0.1-7.3-0.2-14.6-0.1-21.9
			C378.2,185,377,185,377,185.8L377,185.8z"/>
	</g>
</g>
<g>
	<g>
		<path class="st0" d="M379.3,186.8c0,3.5-0.1,6.9-0.2,10.4c0,1.6-0.1,3.2-0.2,4.8c-0.1,1.4,0.4,4.2-0.3,5.4
			c0.4,0.1,0.8,0.2,1.2,0.3v-0.1c-0.1-0.8-1.3-0.8-1.2,0v0.1c0.1,0.6,0.8,0.9,1.2,0.3c1.1-2,0.5-6.2,0.5-8.4
			c0.2-4.3,0.2-8.5,0.2-12.8C380.6,186,379.3,186,379.3,186.8L379.3,186.8z"/>
	</g>
</g>
<g>
	<g>
		<path class="st0" d="M381.4,186.8c-1.1,2.2-0.3,5.3-0.2,7.7c0.2,4,0.4,8,0.6,12c0,0.8,1.3,0.8,1.2,0c-0.2-3.3-0.3-6.5-0.5-9.8
			c-0.1-2.4-1.1-7.1-0.1-9.3C382.8,186.8,381.7,186.1,381.4,186.8L381.4,186.8z"/>
	</g>
</g>
<g>
	<g>
		<path class="st0" d="M383.3,188.6c0.1,5.8,0.1,11.6,0,17.4c0,0.8,1.2,0.8,1.2,0c0.2-5.8,0.2-11.6,0-17.4
			C384.5,187.8,383.3,187.8,383.3,188.6L383.3,188.6z"/>
	</g>
</g>
<g>
	<g>
		<path class="st0" d="M385.7,190.9c0.2,4.3,0.2,8.5,0.2,12.8c0,0.8,1.2,0.8,1.2,0c0-4.3,0-8.5-0.2-12.8
			C386.9,190.1,385.7,190.1,385.7,190.9L385.7,190.9z"/>
	</g>
</g>
<g>
	<g>
		<path class="st0" d="M87.4,112c0.9,4.6,0.7,9.6,1,14.3c0,0.8,1.3,0.8,1.2,0c-0.3-4.8-0.2-9.9-1-14.6
			C88.5,110.9,87.2,111.2,87.4,112L87.4,112z"/>
	</g>
</g>
<g>
	<g>
		<path class="st0" d="M90.6,104c0.2,7.7,0.4,15.4,0.5,23.1c0,0.8,1.3,0.8,1.2,0c-0.2-7.7-0.4-15.4-0.5-23.1
			C91.8,103.2,90.5,103.2,90.6,104L90.6,104z"/>
	</g>
</g>
<g>
	<g>
		<path class="st0" d="M92.3,93.9c0.1,11.5,0.3,23,0.6,34.5c0,0.8,1.3,0.8,1.2,0c-0.4-11.5-0.6-23-0.6-34.5
			C93.6,93.1,92.3,93.1,92.3,93.9L92.3,93.9z"/>
	</g>
</g>
<g>
	<g>
		<path class="st0" d="M94,87c0.7,13.6,1.3,27.2,2,40.9c0,0.8,1.3,0.8,1.2,0c-0.7-13.6-1.3-27.2-2-40.9C95.3,86.2,94,86.2,94,87
			L94,87z"/>
	</g>
</g>
<g>
	<g>
		<path class="st0" d="M97.1,83.1c0-0.2,0-0.4,0.1-0.6c-0.4,0-0.8,0-1.2,0c0.8,15.2,1.7,30.5,2.5,45.7c0,0.8,1.3,0.8,1.2,0
			C98.9,113,98,97.7,97.2,82.5c0-0.8-1.2-0.8-1.2,0c0,0.2,0,0.4-0.1,0.6C95.8,83.9,97,83.9,97.1,83.1L97.1,83.1z"/>
	</g>
</g>
<g>
	<g>
		<path class="st0" d="M99,80.8c0.8,15.7,1.2,31.4,1,47.1c0,0.8,1.2,0.8,1.2,0c0.2-15.7-0.1-31.4-1-47.1C100.2,80,98.9,79.9,99,80.8
			L99,80.8z"/>
	</g>
</g>
<g>
	<g>
		<path class="st0" d="M102.8,79.7c0.3,16.2,0.4,32.4,0.2,48.6c0,0.8,1.2,0.8,1.2,0c0.2-16.2,0.1-32.4-0.2-48.6
			C104.1,78.9,102.8,78.9,102.8,79.7L102.8,79.7z"/>
	</g>
</g>
<g>
	<g>
		<path class="st0" d="M105.8,78.1c-1,17.1-1.3,34.2-1,51.2c0,0.8,1.3,0.8,1.2,0c-0.3-17.1,0-34.2,1-51.2
			C107.1,77.3,105.9,77.3,105.8,78.1L105.8,78.1z"/>
	</g>
</g>
<g>
	<g>
		<path class="st0" d="M106.2,66.2c-0.1,2.6-0.3,5.1-0.4,7.7c0,0.8,1.2,0.8,1.2,0c0.1-2.6,0.3-5.1,0.4-7.7
			C107.5,65.4,106.3,65.4,106.2,66.2L106.2,66.2z"/>
	</g>
</g>
<g>
	<g>
		<path class="st0" d="M109,66.7c-0.6,20.8-0.5,41.7,0.3,62.5c0,0.8,1.3,0.8,1.2,0c-0.7-20.8-0.8-41.7-0.3-62.5
			C110.3,65.9,109,65.9,109,66.7L109,66.7z"/>
	</g>
</g>
<g>
	<g>
		<path class="st0" d="M112.7,66.8c-1.2,10-2.6,19.8-2.1,29.9c0.5,10.8,1.2,21.6,1.9,32.4c0,0.8,1.3,0.8,1.2,0
			c-0.6-10.8-1.3-21.6-1.9-32.4c-0.5-10.1,0.9-19.9,2.1-29.9C114,66,112.8,66,112.7,66.8L112.7,66.8z"/>
	</g>
</g>
<g>
	<g>
		<path class="st0" d="M115.2,66.8c-0.2,20.8-0.5,41.6-0.7,62.3c0,0.8,1.2,0.8,1.2,0c0.2-20.8,0.5-41.6,0.7-62.3
			C116.4,66,115.2,66,115.2,66.8L115.2,66.8z"/>
	</g>
</g>
<g>
	<g>
		<path class="st0" d="M117.7,66.7c0.9,20.9,0.5,41.8-1.4,62.6c-0.1,0.8,1.2,0.8,1.2,0c1.9-20.8,2.4-41.7,1.4-62.6
			C118.9,65.9,117.6,65.9,117.7,66.7L117.7,66.7z"/>
	</g>
</g>
<g>
	<g>
		<path class="st0" d="M121.4,67.1c-1.5,4.1-0.4,10-0.5,14.4c-0.1,5.5-0.3,10.9-0.5,16.4c-0.3,10.7-0.6,21.4-0.9,32.1
			c0,0.8,1.2,0.8,1.2,0c0.3-11.3,0.7-22.7,1-34c0.2-5.4,0.3-10.8,0.5-16.2c0.1-3.9,1-9.5-0.4-13.2c-0.1-0.2-0.3-0.5-0.6-0.5
			c-0.1,0-0.2,0-0.3,0c-0.3,0-0.5,0.2-0.6,0.5c0,0.1-0.1,0.2-0.1,0.2C119.9,67.6,121.1,67.9,121.4,67.1L121.4,67.1z"/>
	</g>
</g>
<g>
	<g>
		<path class="st0" d="M123.8,67c-0.3,21.2-0.5,42.3-0.8,63.5c0,0.8,1.2,0.8,1.2,0c0.3-21.2,0.5-42.3,0.8-63.5
			C125,66.2,123.8,66.2,123.8,67L123.8,67z"/>
	</g>
</g>
<g>
	<g>
		<path class="st0" d="M126.2,66.9c1.4,21-2.1,42-0.6,63c0.1,0.8,1.3,0.8,1.2,0c-1.4-21,2-42,0.6-63
			C127.4,66.1,126.1,66.1,126.2,66.9L126.2,66.9z"/>
	</g>
</g>
<g>
	<g>
		<path class="st0" d="M128.2,67.4c3.1,20.8,0.5,41.7,1.6,62.6c0,0.8,1.3,0.8,1.2,0c-1.1-21,1.5-42-1.6-62.9
			C129.3,66.3,128.1,66.6,128.2,67.4L128.2,67.4z"/>
	</g>
</g>
<g>
	<g>
		<path class="st0" d="M132.1,66.5c1.3,21,0,42.1,1.1,63.2c0,0.8,1.3,0.8,1.2,0c-1-21,0.2-42.1-1.1-63.2
			C133.3,65.7,132.1,65.7,132.1,66.5L132.1,66.5z"/>
	</g>
</g>
<g>
	<g>
		<path class="st0" d="M136.1,66.8c-0.6,19.9-0.5,39.8,0.2,59.8c0,0.8,1.3,0.8,1.2,0c-0.7-19.9-0.7-39.8-0.2-59.8
			C137.3,65.9,136.1,65.9,136.1,66.8L136.1,66.8z"/>
	</g>
</g>
<g>
	<g>
		<path class="st0" d="M137,127.5c0.8,0,0.8-1.2,0-1.2C136.2,126.2,136.2,127.5,137,127.5L137,127.5z"/>
	</g>
</g>
<g>
	<g>
		<path class="st0" d="M137,128.4c0.8,0,0.8-1.2,0-1.2C136.2,127.1,136.2,128.4,137,128.4L137,128.4z"/>
	</g>
</g>
<g>
	<g>
		<path class="st0" d="M136.6,129.5c0,0.4,0,0.8,0.2,1.1c0.4-0.2,0.8-0.3,1.1-0.5c0-0.1-0.1-0.2-0.1-0.3c0-0.8-1.3-0.8-1.2,0
			c0,0.3,0.1,0.6,0.2,0.9c0.3,0.6,1.4,0.2,1.1-0.5c-0.1-0.3-0.1-0.5-0.1-0.8C137.9,128.7,136.7,128.7,136.6,129.5L136.6,129.5z"/>
	</g>
</g>
<g>
	<g>
		<path class="st0" d="M137.9,130.3c-0.3-1.5-0.6-3-0.9-4.5c-0.2-0.8-1.4-0.5-1.2,0.3c0.3,1.5,0.6,3,0.9,4.5
			C136.9,131.5,138.1,131.1,137.9,130.3L137.9,130.3z"/>
	</g>
</g>
<g>
	<g>
		<path class="st0" d="M139.4,66.5c1,21.3-1.9,42.6,0.3,63.8c0.1,0.8,1.3,0.8,1.2,0c-2.2-21.2,0.7-42.5-0.3-63.8
			C140.6,65.7,139.3,65.7,139.4,66.5L139.4,66.5z"/>
	</g>
</g>
<g>
	<g>
		<path class="st0" d="M143.2,66.2c-3.3,20.9-1.8,42.9,0.7,63.7c0.1,0.8,1.3,0.8,1.2,0c-2.5-20.8-4-42.7-0.7-63.4
			C144.5,65.8,143.3,65.5,143.2,66.2L143.2,66.2z"/>
	</g>
</g>
<g>
	<g>
		<path class="st0" d="M145,67.4c0.3,10.8,0.4,21.6,0.1,32.4c-0.1,5.1-0.4,10.2-0.5,15.3c0,5.3,1.4,10.4,1.5,15.7
			c0,0.8,1.3,0.8,1.2,0c-0.1-5-1.4-9.8-1.5-14.8c-0.1-5.4,0.4-10.8,0.5-16.2c0.2-10.8,0.2-21.6-0.1-32.4
			C146.2,66.6,145,66.6,145,67.4L145,67.4z"/>
	</g>
</g>
<g>
	<g>
		<path class="st0" d="M148.4,67.5c-0.6,10.4-0.1,20.9-0.3,31.3c-0.1,10.4-0.5,20.8-0.9,31.2c0,0.8,1.2,0.8,1.2,0
			c0.4-10.4,0.8-20.8,0.9-31.2c0.1-10.4-0.3-20.9,0.3-31.3C149.7,66.7,148.4,66.7,148.4,67.5L148.4,67.5z"/>
	</g>
</g>
<g>
	<g>
		<path class="st0" d="M152.1,67.8l0.1-0.1c0.6-0.6-0.3-1.5-0.9-0.9l-0.1,0.1C150.6,67.5,151.5,68.4,152.1,67.8L152.1,67.8z"/>
	</g>
</g>
<g>
	<g>
		<path class="st0" d="M152.3,67.5c0-0.1,0-0.1,0-0.2c0.1-0.3-0.1-0.7-0.4-0.8c-0.1,0-0.1,0-0.2-0.1c-0.3-0.1-0.7,0.1-0.8,0.4
			c-0.4,1.3,0,2.8,0,4.1c0,2.7-0.2,5.4-0.3,8.2c-0.2,5.6-0.5,11.2-0.6,16.8c-0.3,11.2-0.4,22.4-0.4,33.6c0,0.8,1.3,0.8,1.2,0
			c-0.1-10.6,0-21.1,0.3-31.7c0.1-5.3,0.3-10.5,0.5-15.8c0.1-2.6,0.3-5.1,0.3-7.7c0.1-1.2,0.1-2.3,0.1-3.5c0.2-1.4-0.1-2.7-1.1-3.8
			C151,68,152.2,68.3,152.3,67.5L152.3,67.5z"/>
	</g>
</g>
<g>
	<g>
		<path class="st0" d="M154,67.4c-0.4,11-0.9,21.9-1.5,32.9c-0.5,9.9-1.6,19.8,0,29.6c0.1,0.8,1.3,0.5,1.2-0.3
			c-1.7-10.3-0.4-20.9,0.1-31.2c0.5-10.3,1-20.6,1.4-31C155.2,66.6,154,66.6,154,67.4L154,67.4z"/>
	</g>
</g>
<g>
	<g>
		<path class="st0" d="M156.3,67.6c-1.4,20.9-3.6,41.8-1.2,62.7c0.1,0.8,1.3,0.8,1.2,0c-2.4-20.9-0.2-41.8,1.2-62.7
			C157.6,66.8,156.4,66.8,156.3,67.6L156.3,67.6z"/>
	</g>
</g>
<g>
	<g>
		<path class="st0" d="M159.4,67.4c0.7,10.5-0.8,20.9-0.9,31.4c-0.2,10.5,0.7,20.9,1.3,31.4c0,0.8,1.3,0.8,1.2,0
			c-0.5-10.4-1.4-20.9-1.3-31.4c0.2-10.5,1.7-20.9,0.9-31.4C160.6,66.7,159.3,66.6,159.4,67.4L159.4,67.4z"/>
	</g>
</g>
<g>
	<g>
		<path class="st0" d="M162.3,67.6c1.1,0.3,0.4,13.7,0.3,15.2c-0.1,5.4-0.4,10.9-0.7,16.3c-0.5,10.5-0.7,21,0.7,31.5
			c0.1,0.8,1.4,0.8,1.2,0c-1.7-12.7-0.9-25.5-0.3-38.2c0.3-6.1,0.5-12.1,0.3-18.2c0-1.5,0.9-7.1-1.2-7.8
			C161.9,66.2,161.6,67.4,162.3,67.6L162.3,67.6z"/>
	</g>
</g>
<g>
	<g>
		<path class="st0" d="M165.3,67.2c0.6,10.3-0.9,20.4-1.1,30.7c-0.2,10.8,0.6,21.5,1.4,32.3c0.1,0.8,1.3,0.8,1.2,0
			c-0.8-10.7-1.6-21.5-1.4-32.3c0.2-10.2,1.7-20.4,1.1-30.7C166.5,66.4,165.2,66.4,165.3,67.2L165.3,67.2z"/>
	</g>
</g>
<g>
	<g>
		<path class="st0" d="M168.6,67.6c0.3,10.3-0.8,20.4-1.2,30.7c-0.4,10.2,0.4,20.3,1.2,30.5c0.1,0.8,1.3,0.8,1.2,0
			c-0.8-10.1-1.6-20.3-1.2-30.5c0.4-10.2,1.5-20.4,1.2-30.7C169.8,66.8,168.5,66.8,168.6,67.6L168.6,67.6z"/>
	</g>
</g>
<g>
	<g>
		<path class="st0" d="M171.9,67.9c-0.2,10.4-0.5,20.8-1,31.2c-0.5,9.5-1.5,19,0.4,28.4c0.2,0.8,1.4,0.5,1.2-0.3
			c-2.1-9.9-0.8-20.1-0.3-30.1c0.5-9.7,0.8-19.5,0.9-29.3C173.2,67.1,172,67.1,171.9,67.9L171.9,67.9z"/>
	</g>
</g>
<g>
	<g>
		<path class="st0" d="M174.4,68.5c0.1,9,0.1,17.9,0.2,26.9c0,0.8,1.3,0.8,1.2,0c-0.1-9-0.1-17.9-0.2-26.9
			C175.6,67.7,174.4,67.7,174.4,68.5L174.4,68.5z"/>
	</g>
</g>
<g>
	<g>
		<path class="st0" d="M176.8,70.5c0.1,4.7,0.4,9.3,0.7,14c0.1,0.8,1.3,0.8,1.2,0c-0.3-4.7-0.5-9.3-0.7-14
			C178.1,69.7,176.8,69.7,176.8,70.5L176.8,70.5z"/>
	</g>
</g>
<g>
	<g>
		<path class="st0" d="M28,98.7C28,98.6,28.1,98.6,28,98.7c0.3-0.3,0.4-0.7,0.1-1L28,97.6c-0.4-0.3-0.9-0.2-1,0.3
			c-0.7,2.6,0.8,6.3,1,8.9c0.4,3.8,0.5,7.7,0.5,11.5c0,0.8,1.2,0.8,1.2,0c0-3.6-0.1-7.2-0.4-10.8c-0.1-1.5-0.3-3.1-0.5-4.6
			c-0.2-1.2-1-3.6-0.6-4.8c-0.3,0.1-0.7,0.2-1,0.3c0-0.2,0-0.5,0.1-0.7C26.6,98.4,27.5,99.3,28,98.7L28,98.7z"/>
	</g>
</g>
<g>
	<g>
		<path class="st0" d="M29.5,90.3c1.1,10,1.7,20,1.9,30c0,0.8,1.3,0.8,1.2,0c-0.2-10-0.9-20-1.9-30C30.7,89.5,29.4,89.5,29.5,90.3
			L29.5,90.3z"/>
	</g>
</g>
<g>
	<g>
		<path class="st0" d="M31.8,85.1c0.8,12.3,1.4,24.6,1.8,36.9c0,0.8,1.3,0.8,1.2,0c-0.4-12.3-1-24.6-1.8-36.9
			C33,84.3,31.8,84.3,31.8,85.1L31.8,85.1z"/>
	</g>
</g>
<g>
	<g>
		<path class="st0" d="M33.8,78.1c1.1,15,1.5,30,1.4,45c0,0.8,1.2,0.8,1.2,0c0.2-15-0.3-30-1.4-45C35,77.4,33.7,77.3,33.8,78.1
			L33.8,78.1z"/>
	</g>
</g>
<g>
	<g>
		<path class="st0" d="M36.3,72.6c1.5,8.9,1.1,17.8,1.3,26.7c0.1,8.4,0.6,16.8,1.4,25.2c0.1,0.8,1.3,0.8,1.2,0
			c-0.8-9-1.3-18.1-1.4-27.1c-0.1-8.4,0.1-16.8-1.3-25.1C37.4,71.4,36.2,71.8,36.3,72.6L36.3,72.6z"/>
	</g>
</g>
<g>
	<g>
		<path class="st0" d="M39.2,68.1c1.4,19.3,2,38.7,1.6,58c0,0.8,1.2,0.8,1.3,0c0.3-19.4-0.2-38.7-1.6-58
			C40.4,67.3,39.1,67.3,39.2,68.1L39.2,68.1z"/>
	</g>
</g>
<g>
	<g>
		<path class="st0" d="M41.4,64.3c1.1,0.9,0.3,6.5,0.2,7.9c-0.1,2.7-0.1,5.5-0.1,8.2c0.1,4.9,0.6,9.8,1.2,14.7
			c1.3,10.4,1.1,20.9,0.9,31.4c0,0.8,1.2,0.8,1.2,0c0.2-12,0-23.7-1.4-35.6c-0.7-5.6-0.8-11.2-0.6-16.9c0-2.3,1.5-8.9-0.6-10.6
			C41.6,62.9,40.7,63.8,41.4,64.3L41.4,64.3z"/>
	</g>
</g>
<g>
	<g>
		<path class="st0" d="M44.6,59.8c3,22.7,2.1,45.8,4.6,68.5c0.1,0.5,0.5,0.8,0.9,0.5c0.5-0.3,0.6-0.4,0.6-1c0.1-0.8-1.2-0.8-1.2,0
			c0.2-1.3,0.5-2,0.5-3.4c0-1.6-0.3-3.3-0.4-4.9c-0.2-2.6-0.4-5.2-0.5-7.8c-0.3-5.9-0.5-11.8-0.8-17.7c-0.4-11.4-1-22.9-2.5-34.2
			C45.7,59,44.5,59,44.6,59.8L44.6,59.8z"/>
	</g>
</g>
<g>
	<g>
		<path class="st0" d="M47.7,56.7c0.9,24,2.1,48,3.4,72c0,0.8,1.3,0.8,1.2,0c-1.3-24-2.4-48-3.4-72C48.9,55.9,47.7,55.9,47.7,56.7
			L47.7,56.7z"/>
	</g>
</g>
<g>
	<g>
		<path class="st0" d="M50.2,54.5c0.9,13.2,1.2,26.4,1.4,39.6c0.2,12.1,0.2,23.8,3.6,35.5c0.2,0.8,1.4,0.4,1.2-0.3
			c-3.6-12.2-3.4-24.5-3.6-37.1s-0.5-25.1-1.3-37.7C51.4,53.7,50.2,53.7,50.2,54.5L50.2,54.5z"/>
	</g>
</g>
<g>
	<g>
		<path class="st0" d="M53.2,51.5c1,19.5,2.5,38.9,4.4,58.4c0.1,0.8,1.3,0.8,1.2,0c-1.9-19.4-3.4-38.9-4.4-58.4
			C54.4,50.7,53.2,50.7,53.2,51.5L53.2,51.5z"/>
	</g>
</g>
<g>
	<g>
		<path class="st0" d="M55.3,50.2c1.9,16.3,3.5,32.6,4.6,49c0.1,0.8,1.3,0.8,1.2,0c-1.1-16.4-2.7-32.7-4.6-49
			C56.5,49.4,55.2,49.4,55.3,50.2L55.3,50.2z"/>
	</g>
</g>
<g>
	<g>
		<path class="st0" d="M57.5,50c-0.6,7.1,0.9,13.9,2.3,20.8c1.6,8,2,16,2.2,24.2c0,0.8,1.3,0.8,1.2,0c-0.2-7-0.5-14-1.6-20.9
			c-1.3-8-3.6-15.8-2.9-24.1C58.8,49.2,57.6,49.2,57.5,50L57.5,50z"/>
	</g>
</g>
<g>
	<g>
		<path class="st0" d="M60.7,49.8c0.7,13.6,2,27.2,3.9,40.7c0.1,0.8,1.3,0.5,1.2-0.3c-1.9-13.4-3.2-26.8-3.9-40.4
			C61.9,49,60.7,49,60.7,49.8L60.7,49.8z"/>
	</g>
</g>
<g>
	<g>
		<path class="st0" d="M64.2,49c0.4,11.4,1.3,22.8,2.8,34.2c0.1,0.8,1.3,0.5,1.2-0.3c-1.5-11.2-2.4-22.5-2.8-33.9
			C65.5,48.2,64.2,48.2,64.2,49L64.2,49z"/>
	</g>
</g>
<g>
	<g>
		<path class="st0" d="M67,49.3c-0.1,10.1,0.8,20.1,2.5,30c0.1,0.8,1.3,0.5,1.2-0.3c-1.7-9.8-2.6-19.7-2.5-29.7
			C68.3,48.5,67.1,48.5,67,49.3L67,49.3z"/>
	</g>
</g>
<g>
	<g>
		<path class="st0" d="M69.5,49.7c0.3,7.9,0.9,15.7,1.8,23.5c0.1,0.8,1.3,0.8,1.2,0c-0.9-7.8-1.5-15.7-1.8-23.5
			C70.7,48.9,69.5,48.9,69.5,49.7L69.5,49.7z"/>
	</g>
</g>
<g>
	<g>
		<path class="st0" d="M72,49c0.6,5.2,1.2,10.3,1.8,15.5c0.1,0.8,1.3,0.8,1.2,0c-0.6-5.2-1.2-10.3-1.8-15.5
			C73.1,48.2,71.9,48.2,72,49L72,49z"/>
	</g>
</g>
<g>
	<g>
		<path class="st0" d="M74.6,48.8c0.3,2.8,0.5,5.6,0.8,8.3c0.1,0.8,1.3,0.8,1.2,0c-0.3-2.8-0.5-5.6-0.8-8.3
			C75.8,48,74.5,48,74.6,48.8L74.6,48.8z"/>
	</g>
</g>
<g>
	<g>
		<path class="st0" d="M42.7,62c0,10.8,2.6,21.4,3.1,32.2c0.5,10.9-0.8,21.8,0.1,32.6c0.1,0.8,1.3,0.8,1.2,0
			c-1-10.9,0.4-21.8-0.1-32.6c-0.5-10.8-3.1-21.3-3.1-32.2C43.9,61.2,42.7,61.2,42.7,62L42.7,62z"/>
	</g>
</g>
<g>
	<g>
		<path class="st0" d="M56.5,116.2c-2-11.1-1.7-22.8-2.2-34.1c-0.5-10.2-1-20.4-1.2-30.6c0-0.8-1.3-0.8-1.2,0
			c0.2,10.9,0.8,21.8,1.3,32.6c0.5,10.7,0.3,21.8,2.1,32.4C55.4,117.3,56.6,117,56.5,116.2L56.5,116.2z"/>
	</g>
</g>
</svg>
